<?xml version="1.0" encoding="UTF-8" standalone="no"?>
<svg id="svg2" xmlns:rdf="http://www.w3.org/1999/02/22-rdf-syntax-ns#" xmlns="http://www.w3.org/2000/svg" height="297mm" width="210mm" version="1.1" xmlns:cc="http://creativecommons.org/ns#" xmlns:dc="http://purl.org/dc/elements/1.1/" viewBox="0 0 744.09448819 1052.3622047">
 <g id="layer1" fill-rule="evenodd">
  <rect id="rect3415" height="80.17" width="140.2" y="260.8" x="89.91"/>
  <rect id="rect3421" height="101.6" width="114.5" y="495.1" x="248.5"/>
  <rect id="rect3421-4" height="87.47" width="136" y="206.5" x="338.4"/>
  <rect id="rect3421-4-7" height="301.5" width="111.5" y="152.3" x="685.7"/>
  <rect id="rect3421-6" height="101.9" width="74.78" y="512.1" x="609.8"/>
  <rect id="rect3421-0" height="67.33" width="71.62" y="609.4" x="495.6"/>
  <rect id="rect3421-0-0" height="63.42" width="114.8" y="550.7" x="495.4"/>
  <rect id="rect3415-4" height="85.89" width="170.2" y="779.4" x="352.8"/>
  <rect id="rect3421-1" height="68.76" width="160.2" y="999.4" x="171.3"/>
  <rect id="rect3421-1-0" height="293" width="60.19" y="630.8" x="-5.809"/>
  <rect id="rect3415-9" height="147.3" width="185.9" y="-8.439" x="-11.52"/>
  <rect id="rect3415-9-5" height="67.32" width="140.2" y="-35.58" x="454.2"/>
  <rect id="rect3415-9-5-0" height="47.32" width="140.2" y="87.28" x="335.6"/>
  <rect id="rect3415-9-5-0-1" height="111.6" width="74.46" y="302.3" x="541.3"/>
  <rect id="rect3421-0-8" height="137.3" width="258.8" y="936.6" x="501.3"/>
  <rect id="rect3421-7" height="78.76" width="110.2" y="709.4" x="677"/>
  <rect id="rect3421-7-7" height="100.2" width="74.48" y="747.3" x="137"/>
  <rect id="rect3415-1" height="205.9" width="68.75" y="329.4" x="89.91"/>
  <rect id="rect3421-7-7-4" height="50.19" width="121.6" y="630.8" x="32.76"/>
 </g>
</svg>
